<svg xmlns="http://www.w3.org/2000/svg" xmlns:xlink="http://www.w3.org/1999/xlink" width="818" height="289" viewBox="0 0 818 289" role="img" aria-label="Ferroly">
<title>Ferroly</title>
<!-- Wordmark: "Ferroly" (Title case). -->
<!-- Font type : Ferro Rosso (PostScript "FerroRosso"). Glyphs are baked to
     vector <path> outlines, so the logo renders identically on any viewer
     without the font installed. -->
<!-- Default size : 256 px em (rendered at font-size 256 via HarfBuzz hb-view). -->
<!-- Weight      : Regular (400); faux-bold applied with a 6 px stroke that
     matches the fill. -->
<!-- Colour      : brick-red vertical gradient #C0392B -> #8E2A20 (unchanged). -->
<defs>
  <linearGradient id="brick" x1="0" y1="49" x2="0" y2="272" gradientUnits="userSpaceOnUse">
    <stop offset="0" stop-color="#C0392B"/>
    <stop offset="1" stop-color="#8E2A20"/>
  </linearGradient>
</defs>
<defs>
<g>
<g id="glyph-0-0">
<path d="M 141.75 -168.375 L 141.75 -144.5 L 75.375 -144.5 L 75.375 -96.875 L 87 -96.875 L 87 -108.125 L 104.875 -108.125 L 104.875 -63.375 L 87 -63.375 L 87 -74.125 L 75.375 -74.125 L 75.375 -23.875 L 99.875 -23.875 L 99.875 0 L 13.625 0 L 13.625 -23.875 L 38.125 -23.875 L 38.125 -144.5 L 13.625 -144.5 L 13.625 -168.375 Z M 141.75 -168.375 "/>
</g>
<g id="glyph-0-1">
<path d="M 118.875 -168.375 L 118.875 -144.5 L 0 -144.5 L 0 -168.375 Z M 104.625 -53.5 L 36.25 -53.5 L 36.25 -24.25 C 36.25 -19.667969 38.582031 -17.375 43.25 -17.375 L 61.875 -17.375 C 66.207031 -17.375 68.375 -19.75 68.375 -24.5 L 68.375 -41.5 L 104.625 -41.5 L 104.625 -25.875 C 104.625 -17.875 101.75 -11.5625 96 -6.9375 C 90.25 -2.3125 82.542969 0 72.875 0 L 30.25 0 C 20.332031 0 12.75 -2.625 7.5 -7.875 C 2.5 -12.707031 0 -19.375 0 -27.875 L 0 -100.625 C 0 -109.375 3.25 -116.082031 9.75 -120.75 C 15.332031 -124.75 22.417969 -126.75 31 -126.75 L 74.375 -126.75 C 94.542969 -126.75 104.625 -117.792969 104.625 -99.875 Z M 68.375 -67.875 L 68.375 -101.875 C 68.375 -106.792969 66.375 -109.25 62.375 -109.25 L 42.75 -109.125 C 38.417969 -109.125 36.25 -106.625 36.25 -101.625 L 36.25 -67.875 Z M 68.375 -67.875 "/>
</g>
<g id="glyph-0-2">
<path d="M 120.125 -168.375 L 120.125 -144.5 L 0 -144.5 L 0 -168.375 Z M 106.125 -57.75 L 69.5 -57.75 L 69.5 -98.875 C 69.5 -100.542969 69.375 -101.605469 69.125 -102.0625 C 68.875 -102.519531 68.332031 -102.75 67.5 -102.75 C 65.332031 -102.75 61.582031 -99.957031 56.25 -94.375 C 52.582031 -90.625 49.5 -86.667969 47 -82.5 L 47 -23.875 L 58.625 -23.875 L 58.625 0 L 0 0 L 0 -23.875 L 12 -23.875 L 12 -105.5 L 0 -105.5 L 0 -126.75 L 47 -126.75 L 47 -108.75 C 50.417969 -112.582031 55.207031 -116.292969 61.375 -119.875 C 69.292969 -124.542969 76.542969 -126.875 83.125 -126.875 C 90.207031 -126.875 95.8125 -124.980469 99.9375 -121.1875 C 104.0625 -117.394531 106.125 -112.332031 106.125 -106 Z M 106.125 -57.75 "/>
</g>
<g id="glyph-0-3">
<path d="M 119.75 -168.375 L 119.75 -144.5 L 0 -144.5 L 0 -168.375 Z M 104.625 -98.875 L 104.625 -25.875 C 104.625 -17.875 101.75 -11.5625 96 -6.9375 C 90.25 -2.3125 82.542969 0 72.875 0 L 30.25 0 C 20.332031 0 12.75 -2.625 7.5 -7.875 C 2.5 -12.707031 0 -19.375 0 -27.875 L 0 -100.625 C 0 -109.375 3.25 -116.082031 9.75 -120.75 C 15.332031 -124.75 22.417969 -126.75 31 -126.75 L 74.375 -126.75 C 94.542969 -126.75 104.625 -117.457031 104.625 -98.875 Z M 68.375 -24.5 L 68.375 -101.875 C 68.375 -106.792969 66.375 -109.25 62.375 -109.25 L 42.75 -109.125 C 38.417969 -109.125 36.25 -106.625 36.25 -101.625 L 36.25 -24.25 C 36.25 -19.667969 38.582031 -17.375 43.25 -17.375 L 61.875 -17.375 C 66.207031 -17.375 68.375 -19.75 68.375 -24.5 Z M 68.375 -24.5 "/>
</g>
<g id="glyph-0-4">
<path d="M 59.75 0 L 0 0 L 0 -23.875 L 12 -23.875 L 12 -144.5 L 0 -144.5 L 0 -168.375 L 48.125 -168.375 L 48 -23.875 L 59.75 -23.875 Z M 59.75 0 "/>
</g>
<g id="glyph-0-5">
<path d="M 133.875 -168.375 L 133.875 -144.5 L 0 -144.5 L 0 -168.375 Z M 116.625 26.5 C 116.625 45.082031 106.667969 54.375 86.75 54.375 L 43.625 54.375 C 33.957031 54.375 26.269531 52.0625 20.5625 47.4375 C 14.855469 42.8125 12 36.5 12 28.5 L 12 10.875 L 48.125 10.875 L 48.125 23.5 C 48.125 28.25 50.167969 30.625 54.25 30.625 L 73.375 30.625 C 78.125 30.625 80.5 28.375 80.5 23.875 L 80.5 0 L 42.25 0 C 32.332031 0 24.707031 -2.625 19.375 -7.875 C 14.457031 -12.707031 12 -19.375 12 -27.875 L 12 -105.5 L 0 -105.5 L 0 -126.75 L 48.125 -126.75 L 48.125 -24.25 C 48.125 -19.667969 50.5 -17.375 55.25 -17.375 L 73.875 -17.375 C 78.292969 -17.375 80.5 -19.625 80.5 -24.125 L 80.5 -105.5 L 68.5 -105.5 L 68.5 -126.75 L 116.625 -126.75 Z M 116.625 26.5 "/>
</g>
</g>
</defs>
<g fill="url(#brick)" stroke="url(#brick)" stroke-width="6" stroke-linejoin="round" stroke-linecap="round">
<use xlink:href="#glyph-0-0" x="16" y="217.625"/>
<use xlink:href="#glyph-0-1" x="133.5" y="217.625"/>
<use xlink:href="#glyph-0-2" x="250.5" y="217.625"/>
<use xlink:href="#glyph-0-2" x="368.5" y="217.625"/>
<use xlink:href="#glyph-0-3" x="486.5" y="217.625"/>
<use xlink:href="#glyph-0-4" x="604.375" y="217.625"/>
<use xlink:href="#glyph-0-5" x="667.625" y="217.625"/>
</g>
</svg>
